# xmcd CD database file
#
# Track frame offsets:
#	150
#	42456
#	74346
#	107201
#	137959
#	175081
#
# Disc length: 2804 seconds
#
# Revision: 0
# Processed by: cddbd v1.5.1PL2 Copyright (c) Steve Scherf et al.
# Submitted via: CDex 1.70beta2
#
DISCID=570af206
DTITLE=Lee Morgan - The Cooker
DYEAR=1957
DGENRE=Jazz
TTITLE0=A Night In Tunesia
TTITLE1=Heavy Dipper
TTITLE2=Just One Of Those Things
TTITLE3=Lover Man
TTITLE4=New-Ma
TTITLE5=Just One Of Those Things (Alternate Version)
EXTD=YEAR: 1957
EXTT0=
EXTT1=
EXTT2=
EXTT3=
EXTT4=
EXTT5=
PLAYORDER=
